<?xml version="1.0" encoding="UTF-8"?>
<svg version="1.1" xmlns="http://www.w3.org/2000/svg" width="256" height="256">
<path d="M0 0 C2.73288549 2.60588393 5.39309455 5.26829589 8 8 C11.51395129 6.52539544 13.47055576 4.56688109 16 1.75 C24.24765402 -6.66016937 34.62365046 -10.84195567 46.3125 -11.0625 C59.28773647 -10.60722854 69.74690663 -6.15395309 79 3 C87.08890544 12.65787417 90.31357346 23.484329 90 36 C88.11360509 53.27540605 76.92061222 63.65909306 65.16796875 75.2578125 C63.72464429 76.69620468 62.28213764 78.13541791 60.84040833 79.57540894 C57.83654006 82.57168256 54.82637349 85.56141543 51.81079102 88.54589844 C47.94062131 92.37622756 44.08154161 96.21749063 40.2264204 100.06295967 C36.54380249 103.73563107 32.85623817 107.40331793 29.16796875 111.0703125 C28.46416769 111.77071781 27.76036663 112.47112312 27.03523827 113.19275284 C25.05378835 115.16266975 23.0689011 117.12904896 21.08276367 119.09423828 C20.49315353 119.68115952 19.9035434 120.26808075 19.29606628 120.87278748 C15.88618228 124.23745118 13.78903498 126.1632002 9 126.625 C4.55785067 126.50402587 2.6702743 125.26193623 -0.52636719 122.23657227 C-1.39918335 121.41561066 -2.27199951 120.59464905 -3.17126465 119.74880981 C-4.57148865 118.38814896 -4.57148865 118.38814896 -6 117 C-6.47840836 116.53621319 -6.95681671 116.07242638 -7.44972229 115.59458542 C-11.19135793 111.95845544 -14.88771855 108.27784969 -18.578125 104.58984375 C-19.76008289 103.41110911 -20.94211148 102.23244535 -22.12420654 101.05384827 C-24.58326682 98.60072833 -27.04030047 96.14559925 -29.49609375 93.68920898 C-32.62662474 90.55857599 -35.7640079 87.43490757 -38.90315628 84.31291866 C-41.33968403 81.88755587 -43.7716062 79.45761446 -46.2022934 77.02639961 C-47.3567918 75.87307213 -48.5128908 74.72134433 -49.67069244 73.57133293 C-61.81945054 61.49677763 -71.45768114 50.51370268 -72.1328125 32.5234375 C-71.66196409 20.03210627 -67.14367941 8.64493326 -58 0 C-40.7908847 -13.76729224 -16.88189408 -15.13549124 0 0 Z M-42.9375 16.4375 C-43.618125 17.283125 -44.29875 18.12875 -45 19 C-45.51046875 19.61488281 -46.0209375 20.22976562 -46.546875 20.86328125 C-49.37627477 25.02371586 -50.22872981 30.23577596 -49.81640625 35.21875 C-48.25029335 42.42564124 -43.86903909 47.38275236 -38.77246094 52.45458984 C-38.26469116 52.96265167 -37.75692139 53.4707135 -37.23376465 53.99417114 C-35.57200282 55.65455146 -33.90329449 57.30775454 -32.234375 58.9609375 C-31.07380179 60.11777638 -29.91367246 61.27506072 -28.75396729 62.43276978 C-25.71376103 65.46537264 -22.66759497 68.49191868 -19.62011719 71.51721191 C-16.50611963 74.61067985 -13.39783932 77.70988085 -10.2890625 80.80859375 C-4.19826634 86.87799816 1.8988426 92.94101121 8 99 C11.82498876 97.41770708 14.26398734 94.99583949 17.17993164 92.09472656 C17.68288254 91.5968866 18.18583344 91.09904663 18.70402527 90.58612061 C20.36126336 88.94275525 22.01099437 87.29209222 23.66015625 85.640625 C24.81288578 84.49178412 25.96583813 83.34316678 27.1190033 82.19476318 C29.53401151 79.78721254 31.94511285 77.37582822 34.35375977 74.96191406 C37.43427303 71.87561169 40.52598764 68.80081154 43.62098026 65.72903824 C46.0051823 63.35960084 48.38238633 60.9832374 50.757658 58.60485077 C51.89435667 57.4686641 53.03340883 56.33482676 54.17488289 55.20343781 C55.77370743 53.61701084 57.36262062 52.02125218 58.94946289 50.42285156 C59.85451065 49.51843323 60.75955841 48.61401489 61.69203186 47.68218994 C65.81012862 42.89637097 67.67429975 38.29687155 68 32 C67.17911605 25.39444947 64.54244082 20.54244082 59.8125 15.8125 C53.31466612 11.62500705 48.03941677 10.44430388 40.45703125 12.06640625 C34.87839054 14.18611234 30.74091364 18.01507561 26.6015625 22.203125 C25.88182755 22.9271048 25.88182755 22.9271048 25.14755249 23.66571045 C23.63521944 25.18912479 22.13004085 26.71938455 20.625 28.25 C19.59291548 29.29212993 18.56036746 30.33380105 17.52734375 31.375 C15.01285404 33.91138979 12.50472561 36.45396326 10 39 C6.30193398 37.46213797 4.05023655 35.2273811 1.296875 32.3515625 C0.39839844 31.42859375 -0.50007813 30.505625 -1.42578125 29.5546875 C-2.83604349 28.09505386 -4.2428933 26.63244772 -5.64404297 25.1640625 C-12.08069187 18.43886633 -17.26872907 13.5920197 -26.375 11.0625 C-32.69429975 10.95354656 -38.0451779 12.37791358 -42.9375 16.4375 Z " fill="#6F88EE" transform="translate(119,115)"/>
<path d="M0 0 C8.7545884 7.34306962 14.34985209 16.41205913 16.1875 27.75 C17.19819079 41.31658023 13.70083581 51.93944094 5.9375 62.9375 C-2.15237061 71.21123131 -13.04049696 76.74499704 -24.65039062 77.04248047 C-37.63538526 77.15933402 -48.06729067 73.99551841 -57.75 64.9375 C-66.52973185 55.5522694 -70.34214101 44.59039471 -70.0546875 31.89453125 C-69.10604375 19.57746323 -64.41456823 9.71560394 -55.3125 1.3125 C-38.87545084 -12.17854538 -17.24992306 -12.55070544 0 0 Z M-41.203125 18.07421875 C-45.27943429 22.31872527 -48.04406916 27.95785059 -48.3125 33.875 C-47.28281297 41.85507446 -45.17006817 46.25888147 -38.78125 51.33984375 C-33.44491852 55.16209705 -28.24179791 55.52544204 -21.8125 54.75 C-14.61950766 52.63142906 -10.04567957 47.70881833 -6.4375 41.3125 C-4.8532172 34.8169405 -5.32589446 28.50178876 -8.8125 22.75 C-13.44865983 17.21399481 -18.15390033 13.73158092 -25.3984375 12.80078125 C-31.41127323 12.67429765 -36.44485749 14.37455663 -41.203125 18.07421875 Z " fill="#7173EF" transform="translate(154.8125,19.25)"/>
</svg>
